# xmcd CD database file
#
# Track frame offsets:
#	150
#	17452
#	34487
#	51537
#	67395
#	84237
#	98637
#	116170
#	138512
#	154887
#	178737
#	194160
#	215260
#	234762
#	253070
#
# Disc length: 3552 seconds
#
# Revision: 5
# Processed by: cddbd v1.5.2PL0 Copyright (c) Steve Scherf et al.
# Submitted via: CDex 1.51
#
DISCID=dc0dde0f
DTITLE=Mike Ness - Cheating At Solitaire
DYEAR=1999
DGENRE=Country
TTITLE0=The Devil In Miss Jones
TTITLE1=Dont Think Twice
TTITLE2=Misery Loves Company
TTITLE3=Crime Don't Pay
TTITLE4=Rest Of Our Lives
TTITLE5=You Win Again
TTITLE6=Cheating At Solitaire
TTITLE7=No Man's Friend
TTITLE8=Charmed Life
TTITLE9=Dope Fiend Blues
TTITLE10=Ballad Of A Lonely Man
TTITLE11=Im In Love w/My Car
TTITLE12=If You Leave Before Me
TTITLE13=Long Black Veil
TTITLE14=Send Her Back
EXTD=YEAR: 1999
EXTT0=
EXTT1=
EXTT2=
EXTT3=
EXTT4=
EXTT5=
EXTT6=
EXTT7=
EXTT8=
EXTT9=
EXTT10=
EXTT11=
EXTT12=
EXTT13=
EXTT14=
PLAYORDER=
